<svg xmlns="http://www.w3.org/2000/svg" width="144" height="511"><g><rect height="27" width="27" y="1" x="5" style="stroke-width:1;stroke:rgb(0,0,0)" fill="#440154"/><text xml:space="preserve" y="21" x="40" font-size="12" stroke-width="0" stroke="#000000" fill="#000000">286.0</text><rect height="27" width="27" y="41" x="5" style="stroke-width:1;stroke:rgb(0,0,0)" fill="#462864"/><text xml:space="preserve" y="61" x="40" font-size="12" stroke-width="0" stroke="#000000" fill="#000000">309.0</text><rect height="27" width="27" y="81" x="5" style="stroke-width:1;stroke:rgb(0,0,0)" fill="#444072"/><text xml:space="preserve" y="101" x="40" font-size="12" stroke-width="0" stroke="#000000" fill="#000000">322.0</text><rect height="27" width="27" y="121" x="5" style="stroke-width:1;stroke:rgb(0,0,0)" fill="#40547d"/><text xml:space="preserve" y="141" x="40" font-size="12" stroke-width="0" stroke="#000000" fill="#000000">332.0</text><rect height="27" width="27" y="161" x="5" style="stroke-width:1;stroke:rgb(0,0,0)" fill="#396586"/><text xml:space="preserve" y="181" x="40" font-size="12" stroke-width="0" stroke="#000000" fill="#000000">334.0</text><rect height="27" width="27" y="201" x="5" style="stroke-width:1;stroke:rgb(0,0,0)" fill="#31738c"/><text xml:space="preserve" y="221" x="40" font-size="12" stroke-width="0" stroke="#000000" fill="#000000">427.0</text><rect height="27" width="27" y="241" x="5" style="stroke-width:1;stroke:rgb(0,0,0)" fill="#297e8f"/><text xml:space="preserve" y="261" x="40" font-size="12" stroke-width="0" stroke="#000000" fill="#000000">428.0</text><rect height="27" width="27" y="281" x="5" style="stroke-width:1;stroke:rgb(0,0,0)" fill="#29878e"/><text xml:space="preserve" y="301" x="40" font-size="12" stroke-width="0" stroke="#000000" fill="#000000">430.0</text><rect height="27" width="27" y="321" x="5" style="stroke-width:1;stroke:rgb(0,0,0)" fill="#3e918a"/><text xml:space="preserve" y="341" x="40" font-size="12" stroke-width="0" stroke="#000000" fill="#000000">441.0</text><rect height="27" width="27" y="361" x="5" style="stroke-width:1;stroke:rgb(0,0,0)" fill="#5b9e83"/><text xml:space="preserve" y="381" x="40" font-size="12" stroke-width="0" stroke="#000000" fill="#000000">477.0</text><rect height="27" width="27" y="401" x="5" style="stroke-width:1;stroke:rgb(0,0,0)" fill="#7dad78"/><text xml:space="preserve" y="421" x="40" font-size="12" stroke-width="0" stroke="#000000" fill="#000000">491.0</text><rect height="27" width="27" y="441" x="5" style="stroke-width:1;stroke:rgb(0,0,0)" fill="#a3be69"/><text xml:space="preserve" y="461" x="40" font-size="12" stroke-width="0" stroke="#000000" fill="#000000">3080.0</text><rect height="27" width="27" y="481" x="5" style="stroke-width:1;stroke:rgb(0,0,0)" fill="#ced252"/><text xml:space="preserve" y="501" x="40" font-size="12" stroke-width="0" stroke="#000000" fill="#000000">3917.0</text></g></svg>